<?xml version="1.0" encoding="utf-8"?>
<!-- Generator: Adobe Illustrator 19.0.0, SVG Export Plug-In . SVG Version: 6.00 Build 0)  -->
<svg version="1.1" xmlns="http://www.w3.org/2000/svg" xmlns:xlink="http://www.w3.org/1999/xlink" x="0px" y="0px"
	 viewBox="0 0 1080 512" style="enable-background:new 0 0 1080 512;" xml:space="preserve">
<style type="text/css">
	.st0{fill:#2449B2;}
	.st1{fill:none;stroke:#FFFFFF;stroke-width:3;stroke-miterlimit:10;}
	.st2{fill:#FFFFFF;}
	.st3{font-family:'DancingScript-Regular';}
	.st4{font-size:105.6533px;}
</style>
<g id="Calque_1">
	<rect id="XMLID_1_" class="st0" width="1080" height="512"/>
</g>
<g id="Calque_4">
</g>
<g id="Calque_3">
	<path id="XMLID_4_" class="st1" d="M1045.2,345.5H34.8c-11.7,0-21.3-9.5-21.3-21.3V187.7c0-11.7,9.5-21.3,21.3-21.3h1010.5
		c11.7,0,21.3,9.5,21.3,21.3v136.5C1066.5,336,1057,345.5,1045.2,345.5z"/>
</g>
<g id="Calque_2">
	<text id="XMLID_3_" transform="matrix(1 0 0 1 42.4366 286.4278)" class="st2 st3 st4">The incredible Contraption</text>
	<path id="XMLID_2_" class="st1" d="M1040.8,333H39.2c-7,0-12.8-5.7-12.8-12.8V191.7c0-7,5.7-12.8,12.8-12.8h1001.7
		c7,0,12.8,5.7,12.8,12.8v128.6C1053.6,327.3,1047.9,333,1040.8,333z"/>
</g>
</svg>
